<svg version="1.1" viewBox="0.0 0.0 96.0 96.0" fill="none" stroke="none" stroke-linecap="square" stroke-miterlimit="10" xmlns:xlink="http://www.w3.org/1999/xlink" xmlns="http://www.w3.org/2000/svg"><clipPath id="p.0"><path d="m0 0l96.0 0l0 96.0l-96.0 0l0 -96.0z" clip-rule="nonzero"/></clipPath><g clip-path="url(#p.0)"><path fill="#000000" fill-opacity="0.0" d="m0 0l96.0 0l0 96.0l-96.0 0z" fill-rule="evenodd"/><path fill="#000000" d="m0.25144356 0.0047244094l96.0 0l0 96.0l-96.0 0z" fill-rule="evenodd"/><path fill="#000000" d="m12.756335 12.790528l64.78741 0l0 64.944885l-64.78741 0z" fill-rule="evenodd"/><path stroke="#b7b7b7" stroke-width="1.0" stroke-linejoin="round" stroke-linecap="butt" d="m12.756335 12.790528l64.78741 0l0 64.944885l-64.78741 0z" fill-rule="evenodd"/><path fill="#000000" d="m18.173658 18.257719l64.7874 0l0 64.94488l-64.7874 0z" fill-rule="evenodd"/><path stroke="#b7b7b7" stroke-width="1.0" stroke-linejoin="round" stroke-linecap="butt" d="m18.173658 18.257719l64.7874 0l0 64.94488l-64.7874 0z" fill-rule="evenodd"/><path fill="#000000" fill-opacity="0.0" d="m18.95915 18.274038l64.7874 0l0 64.94488l-64.7874 0z" fill-rule="evenodd"/><path fill="#ffffff" d="m41.79394 68.02648q-1.578125 0 -2.421875 -0.84375q-0.828125 -0.84375 -0.828125 -2.421875l0 -27.3125q0 -1.578125 0.828125 -2.421875q0.84375 -0.84375 2.421875 -0.84375l11.53125 0q3.546875 0 6.046875 1.0625q2.5 1.046875 3.8125 3.015625q1.3125038 1.96875 1.3125038 4.703125q0 3.078125 -1.7812538 5.1875q-1.765625 2.109375 -4.828125 2.828125l0 -0.71875q3.546875 0.53125 5.515625 2.703125q1.9687538 2.15625 1.9687538 5.609375q0 4.515625 -3.0468788 6.984375q-3.046875 2.46875 -8.46875 2.46875l-12.0625 0zm2.640625 -4.65625l8.640625 0q3.265625 0 4.796875 -1.265625q1.546875 -1.28125 1.546875 -3.828125q0 -2.59375 -1.546875 -3.828125q-1.53125 -1.25 -4.796875 -1.25l-8.640625 0l0 10.171875zm0 -14.828125l7.828125 0q3.171875 0 4.734375 -1.21875q1.5625 -1.234375 1.5625 -3.640625q0 -2.390625 -1.5625 -3.609375q-1.5625 -1.234375 -4.734375 -1.234375l-7.828125 0l0 9.703125z" fill-rule="nonzero"/></g></svg>