<svg version="1.1" viewBox="0.0 0.0 959.7217847769028 288.0" fill="none" stroke="none" stroke-linecap="square" stroke-miterlimit="10" xmlns:xlink="http://www.w3.org/1999/xlink" xmlns="http://www.w3.org/2000/svg"><clipPath id="p.0"><path d="m0 0l959.7218 0l0 288.0l-959.7218 0l0 -288.0z" clip-rule="nonzero"/></clipPath><g clip-path="url(#p.0)"><path fill="#000000" fill-opacity="0.0" d="m0 0l959.7218 0l0 288.0l-959.7218 0z" fill-rule="evenodd"/><path fill="#000000" d="m66.64934 14.724664l786.80316 0l0 228.8189l-786.80316 0z" fill-rule="evenodd"/><path stroke="#ffffff" stroke-width="4.0" stroke-linejoin="round" stroke-linecap="butt" d="m66.64934 14.724664l786.80316 0l0 228.8189l-786.80316 0z" fill-rule="evenodd"/><path fill="#000000" d="m96.60286 44.398838l786.80316 0l0 228.81891l-786.80316 0z" fill-rule="evenodd"/><path stroke="#ffffff" stroke-width="4.0" stroke-linejoin="round" stroke-linecap="butt" d="m96.60286 44.398838l786.80316 0l0 228.81891l-786.80316 0z" fill-rule="evenodd"/><path fill="#000000" fill-opacity="0.0" d="m106.149765 44.456345l786.80316 0l0 228.8189l-786.80316 0z" fill-rule="evenodd"/><path fill="#ffffff" d="m170.13148 218.38579q-5.453125 0 -8.34375 -2.890625q-2.890625 -2.890625 -2.890625 -8.359375l0 -94.0625q0 -5.453125 2.890625 -8.34375q2.890625 -2.90625 8.34375 -2.90625l39.6875 0q12.234375 0 20.828125 3.640625q8.59375 3.640625 13.140625 10.421875q4.546875 6.78125 4.546875 16.203125q0 10.578125 -6.125 17.859375q-6.109375 7.265625 -16.6875 9.75l0 -2.484375q12.234375 1.8125 19.015625 9.265625q6.78125 7.4375 6.78125 19.34375q0 15.53125 -10.5 24.046875q-10.5 8.515625 -29.1875 8.515625l-41.5 0zm9.09375 -16.03125l29.765625 0q11.234375 0 16.515625 -4.375q5.296875 -4.390625 5.296875 -13.15625q0 -8.921875 -5.296875 -13.21875q-5.28125 -4.3125 -16.515625 -4.3125l-29.765625 0l0 35.0625zm0 -51.09375l26.953125 0q10.90625 0 16.28125 -4.21875q5.375 -4.21875 5.375 -12.484375q0 -8.265625 -5.375 -12.46875q-5.375 -4.21875 -16.28125 -4.21875l-26.953125 0l0 33.390625zm101.68318 68.28125q-4.96875 0 -7.609375 -2.96875q-2.640625 -2.984375 -2.640625 -8.265625l0 -60.6875q0 -5.453125 2.640625 -8.34375q2.640625 -2.890625 7.609375 -2.890625q4.953125 0 7.671875 2.890625q2.734375 2.890625 2.734375 8.34375l0 60.6875q0 5.28125 -2.640625 8.265625q-2.640625 2.96875 -7.765625 2.96875zm0 -98.53125q-5.796875 0 -9.015625 -2.890625q-3.21875 -2.90625 -3.21875 -8.03125q0 -5.28125 3.21875 -8.09375q3.21875 -2.8125 9.015625 -2.8125q5.953125 0 9.09375 2.8125q3.140625 2.8125 3.140625 8.09375q0 5.125 -3.140625 8.03125q-3.140625 2.890625 -9.09375 2.890625zm68.93991 99.03125q-10.75 0 -17.9375 -3.640625q-7.1875 -3.640625 -10.671875 -10.65625q-3.46875 -7.03125 -3.46875 -17.453125l0 -35.203125l-8.59375 0q-3.96875 0 -6.125 -2.0625q-2.140625 -2.078125 -2.140625 -5.71875q0 -3.796875 2.140625 -5.78125q2.15625 -1.984375 6.125 -1.984375l8.59375 0l0 -15.046875q0 -5.125 2.71875 -7.765625q2.734375 -2.65625 7.703125 -2.65625q4.953125 0 7.59375 2.65625q2.65625 2.640625 2.65625 7.765625l0 15.046875l17.515625 0q3.96875 0 6.109375 1.984375q2.15625 1.984375 2.15625 5.78125q0 3.640625 -2.15625 5.71875q-2.140625 2.0625 -6.109375 2.0625l-17.515625 0l0 34.046875q0 7.9375 3.46875 11.90625q3.46875 3.96875 11.25 3.96875q2.796875 0 4.953125 -0.5q2.15625 -0.5 3.796875 -0.65625q1.984375 -0.171875 3.3125 1.234375q1.328125 1.40625 1.328125 5.703125q0 3.3125 -1.078125 5.875q-1.078125 2.5625 -3.890625 3.546875q-2.140625 0.671875 -5.625 1.25q-3.46875 0.578125 -6.109375 0.578125zm56.048462 0q-7.109375 0 -15.046875 -1.5q-7.9375 -1.484375 -14.21875 -5.109375q-2.640625 -1.65625 -3.71875 -3.890625q-1.078125 -2.234375 -0.828125 -4.46875q0.25 -2.234375 1.65625 -3.875q1.40625 -1.65625 3.625 -2.15625q2.234375 -0.5 4.890625 0.828125q6.609375 3.140625 12.390625 4.390625q5.796875 1.234375 11.40625 1.234375q7.9375 0 11.828125 -2.71875q3.890625 -2.734375 3.890625 -7.203125q0 -3.8125 -2.5625 -5.875q-2.5625 -2.0625 -7.6875 -3.0625l-16.546875 -3.140625q-10.25 -1.984375 -15.625 -7.515625q-5.359375 -5.53125 -5.359375 -14.296875q0 -7.9375 4.375 -13.71875q4.375 -5.796875 12.140625 -8.9375q7.78125 -3.140625 17.859375 -3.140625q7.28125 0 13.640625 1.578125q6.375 1.5625 12.328125 4.875q2.46875 1.3125 3.375 3.46875q0.921875 2.140625 0.421875 4.375q-0.5 2.234375 -1.984375 3.96875q-1.484375 1.734375 -3.71875 2.15625q-2.234375 0.40625 -5.046875 -0.90625q-5.125 -2.65625 -9.84375 -3.8125q-4.703125 -1.15625 -9.0 -1.15625q-8.09375 0 -11.984375 2.8125q-3.890625 2.8125 -3.890625 7.4375q0 3.46875 2.3125 5.796875q2.328125 2.3125 7.109375 3.140625l16.53125 3.140625q10.75 1.984375 16.28125 7.28125q5.546875 5.28125 5.546875 14.203125q0 12.078125 -9.421875 18.9375q-9.421875 6.859375 -25.125 6.859375zm88.773834 29.75q-8.921875 0 -17.28125 -1.65625q-8.34375 -1.640625 -15.125 -5.109375q-3.140625 -1.65625 -4.21875 -3.984375q-1.0625 -2.3125 -0.65625 -4.703125q0.421875 -2.390625 1.984375 -4.21875q1.578125 -1.8125 3.890625 -2.484375q2.3125 -0.65625 4.796875 0.671875q7.265625 3.640625 13.796875 4.703125q6.53125 1.078125 11.15625 1.078125q11.078125 0 16.609375 -5.375q5.5468445 -5.375 5.5468445 -15.953125l0 -14.875l1.5 0q-2.484375 8.4375 -10.3437195 13.484375q-7.84375 5.03125 -17.765625 5.03125q-10.921875 0 -19.03125 -5.03125q-8.09375 -5.046875 -12.5625 -14.140625q-4.453125 -9.09375 -4.453125 -21.171875q0 -9.09375 2.5625 -16.4375q2.5625 -7.359375 7.265625 -12.65625q4.71875 -5.296875 11.40625 -8.1875q6.703125 -2.890625 14.8125 -2.890625q10.25 0 17.9375 5.046875q7.6874695 5.046875 9.9999695 13.3125l-1.65625 4.125l0 -11.734375q0 -5.125 2.71875 -7.765625q2.734375 -2.65625 7.53125 -2.65625q4.96875 0 7.609375 2.65625q2.640625 2.640625 2.640625 7.765625l0 63.65625q0 19.671875 -10.421875 29.578125q-10.40625 9.921875 -30.24997 9.921875zm-0.5 -49.09375q6.453125 0 11.078125 -2.96875q4.640625 -2.984375 7.2030945 -8.515625q2.5625 -5.546875 2.5625 -13.15625q0 -11.40625 -5.6249695 -17.9375q-5.625 -6.53125 -15.21875 -6.53125q-6.4375 0 -11.078125 2.984375q-4.625 2.96875 -7.1875 8.4375q-2.5625 5.453125 -2.5625 13.046875q0 11.40625 5.625 18.03125q5.625 6.609375 15.203125 6.609375zm99.53 19.34375q-12.5625 0 -21.828125 -5.125q-9.25 -5.125 -14.375 -14.625q-5.125 -9.515625 -5.125 -22.40625q0 -9.765625 2.890625 -17.453125q2.890625 -7.6875 8.34375 -13.21875q5.46875 -5.546875 13.0625 -8.4375q7.609375 -2.890625 17.03125 -2.890625q12.5625 0 21.828125 5.125q9.265625 5.125 14.390625 14.546875q5.125 9.421875 5.125 22.328125q0 9.75 -2.90625 17.53125q-2.890625 7.765625 -8.34375 13.296875q-5.453125 5.53125 -13.0625 8.4375q-7.609375 2.890625 -17.03125 2.890625zm0 -15.703125q6.125 0 10.75 -2.96875q4.625 -2.984375 7.1875 -8.859375q2.5625 -5.875 2.5625 -14.625q0 -13.234375 -5.625 -19.765625q-5.609375 -6.53125 -14.875 -6.53125q-6.109375 0 -10.75 2.90625q-4.625 2.890625 -7.1875 8.765625q-2.5625 5.859375 -2.5625 14.625q0 13.0625 5.625 19.765625q5.625 6.6875 14.875 6.6875zm73.41791 15.375q-4.96875 0 -7.703125 -2.734375q-2.71875 -2.734375 -2.71875 -7.859375l0 -56.03125l-7.609375 0q-3.96875 0 -6.125 -2.0625q-2.140625 -2.078125 -2.140625 -5.71875q0 -3.796875 2.140625 -5.78125q2.15625 -1.984375 6.125 -1.984375l13.5625 0l-5.953125 5.453125l0 -5.625q0 -17.03125 8.59375 -25.53125q8.59375 -8.515625 24.796875 -10.015625l5.625 -0.484375q3.3125 -0.34375 5.296875 1.0625q1.984375 1.40625 2.640625 3.640625q0.65625 2.234375 0.15625 4.546875q-0.484375 2.3125 -2.0625 4.0625q-1.5625 1.734375 -4.046875 1.890625l-2.3125 0.171875q-9.421875 0.65625 -13.71875 4.796875q-4.296875 4.125 -4.296875 12.5625l0 6.109375l-2.65625 -2.640625l16.703125 0q3.96875 0 6.109375 1.984375q2.15625 1.984375 2.15625 5.78125q0 3.640625 -2.15625 5.71875q-2.140625 2.0625 -6.109375 2.0625l-14.046875 0l0 56.03125q0 10.59375 -10.25 10.59375zm81.99878 0.328125q-13.71875 0 -23.640625 -5.125q-9.921875 -5.125 -15.296875 -14.546875q-5.375 -9.421875 -5.375 -22.328125q0 -12.5625 5.203125 -21.984375q5.21875 -9.421875 14.390625 -14.796875q9.171875 -5.375 20.90625 -5.375q8.609375 0 15.46875 2.8125q6.859375 2.8125 11.734375 8.109375q4.875 5.28125 7.4375 12.8125q2.5625 7.515625 2.5625 16.9375q0 2.96875 -2.0625 4.546875q-2.0625 1.578125 -5.875 1.578125l-53.0625 0l0 -11.90625l46.453125 0l-2.640625 2.46875q0 -7.59375 -2.234375 -12.71875q-2.234375 -5.125 -6.453125 -7.859375q-4.21875 -2.734375 -10.5 -2.734375q-6.9375 0 -11.8125 3.234375q-4.875 3.21875 -7.4375 9.09375q-2.5625 5.859375 -2.5625 13.96875l0 1.15625q0 13.5625 6.359375 20.265625q6.359375 6.6875 18.765625 6.6875q4.296875 0 9.671875 -1.078125q5.375 -1.078125 10.171875 -3.71875q3.46875 -1.984375 6.109375 -1.734375q2.640625 0.25 4.203125 1.90625q1.578125 1.640625 1.90625 4.046875q0.34375 2.390625 -0.90625 4.875q-1.234375 2.46875 -4.203125 4.296875q-5.796875 3.640625 -13.328125 5.375q-7.515625 1.734375 -13.953125 1.734375zm60.342163 -0.328125q-5.125 0 -7.859375 -2.734375q-2.71875 -2.734375 -2.71875 -7.859375l0 -62.484375q0 -5.125 2.640625 -7.765625q2.640625 -2.65625 7.4375 -2.65625q4.796875 0 7.4375 2.65625q2.65625 2.640625 2.65625 7.765625l0 10.40625l-1.65625 0q2.3125 -9.90625 9.09375 -15.03125q6.78125 -5.125 18.015625 -6.125q3.46875 -0.328125 5.53125 1.734375q2.078125 2.0625 2.40625 6.375q0.328125 4.125 -1.90625 6.6875q-2.234375 2.5625 -6.6875 3.0625l-3.640625 0.328125q-10.078125 0.984375 -15.203125 6.203125q-5.125 5.203125 -5.125 14.625l0 34.21875q0 5.125 -2.65625 7.859375q-2.640625 2.734375 -7.765625 2.734375z" fill-rule="nonzero"/></g></svg>